<svg id="Layer_1" data-name="Layer 1" xmlns="http://www.w3.org/2000/svg" viewBox="0 0 18 18"><defs><style>.cls-1{fill:#fff;}</style></defs><path class="cls-1" d="M10.24,5.92V1.72c0-.34-.36-.6-.81-.6H7c-.45,0-.81.26-.81.6v4.2l2-.9Z"/><path class="cls-1" d="M10.62,12.37a.25.25,0,0,0-.19-.09h0a.26.26,0,0,0-.19.07,2.68,2.68,0,0,1-1.85.77,2.54,2.54,0,0,1-2.53-2.54A2.5,2.5,0,0,1,8.38,8.05a2.65,2.65,0,0,1,1.85.8.27.27,0,0,0,.19.08h0a.3.3,0,0,0,.2-.1l.47-.59a.26.26,0,0,0,0-.36,3.94,3.94,0,0,0-2.71-1.1,3.82,3.82,0,1,0,0,7.64,4,4,0,0,0,2.75-1.15.26.26,0,0,0,0-.37Z"/><path class="cls-1" d="M5.49,15.91a1.62,1.62,0,0,1-1.62-1.63c-.07-8.71-.06-12.39,0-12.6a.67.67,0,0,0,0-.26.5.5,0,0,0-.23-.28c-.29-.13-.67.23-.71.28a1.45,1.45,0,0,0-.41,1.06v13a1.63,1.63,0,0,0,1.63,1.63h9.76a1.68,1.68,0,0,0,1.35-.53.61.61,0,0,0,.07-.41.4.4,0,0,0-.16-.23.47.47,0,0,0-.37,0C14.5,16,10.94,16,5.49,15.91Z"/><path class="cls-1" d="M8.44,11.93h.29a.2.2,0,0,0,.19-.2v-.79H9.7a.2.2,0,0,0,.2-.2v-.31a.2.2,0,0,0-.2-.2H8.92v-.8a.2.2,0,0,0-.19-.2H8.44a.2.2,0,0,0-.2.2v.8H7.45a.2.2,0,0,0-.19.2v.31a.2.2,0,0,0,.19.2h.79v.79A.2.2,0,0,0,8.44,11.93Z"/><path class="cls-1" d="M13.25,10.23h-.78v-.8a.2.2,0,0,0-.2-.2H12a.19.19,0,0,0-.19.2v.8H11a.19.19,0,0,0-.19.2v.31a.19.19,0,0,0,.19.2h.79v.79a.19.19,0,0,0,.19.2h.29a.2.2,0,0,0,.2-.2v-.79h.78a.19.19,0,0,0,.19-.2v-.31A.19.19,0,0,0,13.25,10.23Z"/></svg>